{
  "accessors": [
    {
      "bufferView": 2,
      "componentType": 5126,
      "count": 656,
      "max": [
        50,
        100,
        50
      ],
      "min": [
        -50,
        -100,
        -49.999992370605469
      ],
      "type": "VEC3"
    },
    {
      "bufferView": 2,
      "byteOffset": 7872,
      "componentType": 5126,
      "count": 656,
      "max": [
        1,
        1,
        1
      ],
      "min": [
        -1,
        -1,
        -1
      ],
      "type": "VEC3"
    },
    {
      "bufferView": 3,
      "componentType": 5126,
      "count": 656,
      "max": [
        1,
        1,
        1,
        1
      ],
      "min": [
        1,
        1,
        1,
        1
      ],
      "type": "VEC4"
    },
    {
      "bufferView": 1,
      "componentType": 5126,
      "count": 656,
      "max": [
        0.99993830919265747,
        0.85126602649688721
      ],
      "min": [
        7.794797420501709e-05,
        1.5139579772949219e-05
      ],
      "type": "VEC2"
    },
    {
      "bufferView": 1,
      "byteOffset": 5248,
      "componentType": 5126,
      "count": 656,
      "max": [
        0.99993830919265747,
        0.85126602649688721
      ],
      "min": [
        7.794797420501709e-05,
        1.5139579772949219e-05
      ],
      "type": "VEC2"
    },
    {
      "bufferView": 1,
      "byteOffset": 10496,
      "componentType": 5126,
      "count": 656,
      "max": [
        0.99993830919265747,
        0.85126602649688721
      ],
      "min": [
        7.794797420501709e-05,
        1.5139579772949219e-05
      ],
      "type": "VEC2"
    },
    {
      "bufferView": 0,
      "componentType": 5125,
      "count": 1920,
      "max": [
        655
      ],
      "min": [
        0
      ],
      "type": "SCALAR"
    },
    {
      "bufferView": 2,
      "byteOffset": 15744,
      "componentType": 5126,
      "count": 672,
      "max": [
        9.6667947769165039,
        14.52250862121582,
        9.6667947769165039
      ],
      "min": [
        -9.6667947769165039,
        -14.52250862121582,
        -9.6667938232421875
      ],
      "type": "VEC3"
    },
    {
      "bufferView": 2,
      "byteOffset": 23808,
      "componentType": 5126,
      "count": 672,
      "max": [
        1,
        1,
        1
      ],
      "min": [
        -1,
        -1,
        -1
      ],
      "type": "VEC3"
    },
    {
      "bufferView": 3,
      "byteOffset": 10496,
      "componentType": 5126,
      "count": 672,
      "max": [
        1,
        1,
        1,
        1
      ],
      "min": [
        1,
        1,
        1,
        1
      ],
      "type": "VEC4"
    },
    {
      "bufferView": 1,
      "byteOffset": 15744,
      "componentType": 5126,
      "count": 672,
      "max": [
        0.99987995624542236,
        0.89374321699142456
      ],
      "min": [
        9.0625137090682983e-05,
        0.00013646483421325684
      ],
      "type": "VEC2"
    },
    {
      "bufferView": 1,
      "byteOffset": 21120,
      "componentType": 5126,
      "count": 672,
      "max": [
        0.99987995624542236,
        0.89374321699142456
      ],
      "min": [
        9.0625137090682983e-05,
        0.00013646483421325684
      ],
      "type": "VEC2"
    },
    {
      "bufferView": 1,
      "byteOffset": 26496,
      "componentType": 5126,
      "count": 672,
      "max": [
        0.99987995624542236,
        0.89374321699142456
      ],
      "min": [
        9.0625137090682983e-05,
        0.00013646483421325684
      ],
      "type": "VEC2"
    },
    {
      "bufferView": 0,
      "byteOffset": 7680,
      "componentType": 5125,
      "count": 1920,
      "max": [
        671
      ],
      "min": [
        0
      ],
      "type": "SCALAR"
    },
    {
      "bufferView": 2,
      "byteOffset": 31872,
      "componentType": 5126,
      "count": 332,
      "max": [
        50,
        100,
        50
      ],
      "min": [
        -50,
        -100,
        -49.999992370605469
      ],
      "type": "VEC3"
    },
    {
      "bufferView": 2,
      "byteOffset": 35856,
      "componentType": 5126,
      "count": 332,
      "max": [
        1,
        1,
        1
      ],
      "min": [
        -1,
        -1,
        -1
      ],
      "type": "VEC3"
    },
    {
      "bufferView": 3,
      "byteOffset": 21248,
      "componentType": 5126,
      "count": 332,
      "max": [
        1,
        1,
        1,
        1
      ],
      "min": [
        1,
        1,
        1,
        1
      ],
      "type": "VEC4"
    },
    {
      "bufferView": 1,
      "byteOffset": 31872,
      "componentType": 5126,
      "count": 332,
      "max": [
        0.80036252737045288,
        0.99989420175552368
      ],
      "min": [
        0.00015561282634735107,
        0.00010567903518676758
      ],
      "type": "VEC2"
    },
    {
      "bufferView": 1,
      "byteOffset": 34528,
      "componentType": 5126,
      "count": 332,
      "max": [
        0.80036252737045288,
        0.99989420175552368
      ],
      "min": [
        0.00015561282634735107,
        0.00010567903518676758
      ],
      "type": "VEC2"
    },
    {
      "bufferView": 1,
      "byteOffset": 37184,
      "componentType": 5126,
      "count": 332,
      "max": [
        0.80036252737045288,
        0.99989420175552368
      ],
      "min": [
        0.00015561282634735107,
        0.00010567903518676758
      ],
      "type": "VEC2"
    },
    {
      "bufferView": 0,
      "byteOffset": 15360,
      "componentType": 5125,
      "count": 960,
      "max": [
        331
      ],
      "min": [
        0
      ],
      "type": "SCALAR"
    },
    {
      "bufferView": 2,
      "byteOffset": 39840,
      "componentType": 5126,
      "count": 332,
      "max": [
        50,
        100,
        50
      ],
      "min": [
        -50,
        -100,
        -49.999992370605469
      ],
      "type": "VEC3"
    },
    {
      "bufferView": 2,
      "byteOffset": 43824,
      "componentType": 5126,
      "count": 332,
      "max": [
        1,
        1,
        1
      ],
      "min": [
        -1,
        -1,
        -1
      ],
      "type": "VEC3"
    },
    {
      "bufferView": 3,
      "byteOffset": 26560,
      "componentType": 5126,
      "count": 332,
      "max": [
        1,
        1,
        1,
        1
      ],
      "min": [
        1,
        1,
        1,
        1
      ],
      "type": "VEC4"
    },
    {
      "bufferView": 1,
      "byteOffset": 39840,
      "componentType": 5126,
      "count": 332,
      "max": [
        0.80036252737045288,
        0.99989420175552368
      ],
      "min": [
        0.00015561282634735107,
        0.00010567903518676758
      ],
      "type": "VEC2"
    },
    {
      "bufferView": 1,
      "byteOffset": 42496,
      "componentType": 5126,
      "count": 332,
      "max": [
        0.80036252737045288,
        0.99989420175552368
      ],
      "min": [
        0.00015561282634735107,
        0.00010567903518676758
      ],
      "type": "VEC2"
    },
    {
      "bufferView": 1,
      "byteOffset": 45152,
      "componentType": 5126,
      "count": 332,
      "max": [
        0.80036252737045288,
        0.99989420175552368
      ],
      "min": [
        0.00015561282634735107,
        0.00010567903518676758
      ],
      "type": "VEC2"
    },
    {
      "bufferView": 0,
      "byteOffset": 19200,
      "componentType": 5125,
      "count": 960,
      "max": [
        331
      ],
      "min": [
        0
      ],
      "type": "SCALAR"
    },
    {
      "bufferView": 2,
      "byteOffset": 47808,
      "componentType": 5126,
      "count": 3486,
      "max": [
        100,
        50,
        100
      ],
      "min": [
        -100,
        -49.900001525878906,
        -99.999984741210938
      ],
      "type": "VEC3"
    },
    {
      "bufferView": 2,
      "byteOffset": 89640,
      "componentType": 5126,
      "count": 3486,
      "max": [
        1,
        1,
        1
      ],
      "min": [
        -1,
        -1,
        -1
      ],
      "type": "VEC3"
    },
    {
      "bufferView": 3,
      "byteOffset": 31872,
      "componentType": 5126,
      "count": 3486,
      "max": [
        1,
        1,
        1,
        1
      ],
      "min": [
        1,
        1,
        1,
        1
      ],
      "type": "VEC4"
    },
    {
      "bufferView": 1,
      "byteOffset": 47808,
      "componentType": 5126,
      "count": 3486,
      "max": [
        0.99999487400054932,
        0.48278871178627014
      ],
      "min": [
        5.0663948059082031e-06,
        0.00018074922263622284
      ],
      "type": "VEC2"
    },
    {
      "bufferView": 1,
      "byteOffset": 75696,
      "componentType": 5126,
      "count": 3486,
      "max": [
        0.99999487400054932,
        0.48278871178627014
      ],
      "min": [
        5.0663948059082031e-06,
        0.00018074922263622284
      ],
      "type": "VEC2"
    },
    {
      "bufferView": 1,
      "byteOffset": 103584,
      "componentType": 5126,
      "count": 3486,
      "max": [
        0.99999487400054932,
        0.48278871178627014
      ],
      "min": [
        5.0663948059082031e-06,
        0.00018074922263622284
      ],
      "type": "VEC2"
    },
    {
      "bufferView": 0,
      "byteOffset": 23040,
      "componentType": 5125,
      "count": 19200,
      "max": [
        3485
      ],
      "min": [
        0
      ],
      "type": "SCALAR"
    },
    {
      "bufferView": 2,
      "byteOffset": 131472,
      "componentType": 5126,
      "count": 3486,
      "max": [
        100,
        50,
        100
      ],
      "min": [
        -100,
        -49.900001525878906,
        -99.999984741210938
      ],
      "type": "VEC3"
    },
    {
      "bufferView": 2,
      "byteOffset": 173304,
      "componentType": 5126,
      "count": 3486,
      "max": [
        1,
        1,
        1
      ],
      "min": [
        -1,
        -1,
        -1
      ],
      "type": "VEC3"
    },
    {
      "bufferView": 3,
      "byteOffset": 87648,
      "componentType": 5126,
      "count": 3486,
      "max": [
        1,
        1,
        1,
        1
      ],
      "min": [
        1,
        1,
        1,
        1
      ],
      "type": "VEC4"
    },
    {
      "bufferView": 1,
      "byteOffset": 131472,
      "componentType": 5126,
      "count": 3486,
      "max": [
        0.99999487400054932,
        0.48278871178627014
      ],
      "min": [
        5.0663948059082031e-06,
        0.00018074922263622284
      ],
      "type": "VEC2"
    },
    {
      "bufferView": 1,
      "byteOffset": 159360,
      "componentType": 5126,
      "count": 3486,
      "max": [
        0.99999487400054932,
        0.48278871178627014
      ],
      "min": [
        5.0663948059082031e-06,
        0.00018074922263622284
      ],
      "type": "VEC2"
    },
    {
      "bufferView": 1,
      "byteOffset": 187248,
      "componentType": 5126,
      "count": 3486,
      "max": [
        0.99999487400054932,
        0.48278871178627014
      ],
      "min": [
        5.0663948059082031e-06,
        0.00018074922263622284
      ],
      "type": "VEC2"
    },
    {
      "bufferView": 0,
      "byteOffset": 99840,
      "componentType": 5125,
      "count": 19200,
      "max": [
        3485
      ],
      "min": [
        0
      ],
      "type": "SCALAR"
    }
  ],
  "asset": {
    "extras": {
      "author": "Cryptoid UK (https://sketchfab.com/Cryptoid_UK)",
      "license": "CC-BY-4.0 (http://creativecommons.org/licenses/by/4.0/)",
      "source": "https://sketchfab.com/3d-models/premier-ball-a676438e46d74fa8bb69ba311aca5e47",
      "title": "Premier Ball"
    },
    "generator": "Sketchfab-8.64.0",
    "version": "2.0"
  },
  "bufferViews": [
    {
      "buffer": 0,
      "byteLength": 176640,
      "byteOffset": 0,
      "name": "floatBufferViews",
      "target": 34963
    },
    {
      "buffer": 0,
      "byteLength": 215136,
      "byteOffset": 176640,
      "byteStride": 8,
      "name": "floatBufferViews",
      "target": 34962
    },
    {
      "buffer": 0,
      "byteLength": 215136,
      "byteOffset": 391776,
      "byteStride": 12,
      "name": "floatBufferViews",
      "target": 34962
    },
    {
      "buffer": 0,
      "byteLength": 143424,
      "byteOffset": 606912,
      "byteStride": 16,
      "name": "floatBufferViews",
      "target": 34962
    }
  ],
  "buffers": [
    {
      "byteLength": 750336,
      "uri": "scene.bin"
    }
  ],
  "extensionsRequired": [
    "KHR_materials_pbrSpecularGlossiness"
  ],
  "extensionsUsed": [
    "KHR_materials_pbrSpecularGlossiness"
  ],
  "images": [
    {
      "uri": "textures/material_specularGlossiness.png"
    },
    {
      "uri": "textures/material_1_specularGlossiness.png"
    },
    {
      "uri": "textures/material_2_specularGlossiness.png"
    },
    {
      "uri": "textures/material_4_specularGlossiness.png"
    }
  ],
  "materials": [
    {
      "doubleSided": true,
      "emissiveFactor": [
        0,
        0,
        0
      ],
      "extensions": {
        "KHR_materials_pbrSpecularGlossiness": {
          "diffuseFactor": [
            1,
            0,
            0,
            1
          ],
          "glossinessFactor": 1,
          "specularFactor": [
            1,
            1,
            1
          ],
          "specularGlossinessTexture": {
            "index": 0,
            "texCoord": 0
          }
        }
      },
      "name": "material"
    },
    {
      "doubleSided": true,
      "extensions": {
        "KHR_materials_pbrSpecularGlossiness": {
          "diffuseFactor": [
            1,
            0,
            0,
            1
          ],
          "glossinessFactor": 1,
          "specularFactor": [
            1,
            1,
            1
          ],
          "specularGlossinessTexture": {
            "index": 1,
            "texCoord": 0
          }
        }
      },
      "name": "material_1"
    },
    {
      "doubleSided": true,
      "emissiveFactor": [
        0,
        0,
        0
      ],
      "extensions": {
        "KHR_materials_pbrSpecularGlossiness": {
          "diffuseFactor": [
            1,
            1,
            1,
            1
          ],
          "glossinessFactor": 1,
          "specularFactor": [
            1,
            1,
            1
          ],
          "specularGlossinessTexture": {
            "index": 2,
            "texCoord": 0
          }
        }
      },
      "name": "material_2"
    },
    {
      "doubleSided": true,
      "emissiveFactor": [
        0,
        0,
        0
      ],
      "extensions": {
        "KHR_materials_pbrSpecularGlossiness": {
          "diffuseFactor": [
            1,
            1,
            1,
            1
          ],
          "glossinessFactor": 1,
          "specularFactor": [
            1,
            1,
            1
          ],
          "specularGlossinessTexture": {
            "index": 2,
            "texCoord": 0
          }
        }
      },
      "name": "material_3"
    },
    {
      "doubleSided": true,
      "emissiveFactor": [
        0,
        0,
        0
      ],
      "extensions": {
        "KHR_materials_pbrSpecularGlossiness": {
          "diffuseFactor": [
            1,
            1,
            1,
            1
          ],
          "glossinessFactor": 1,
          "specularFactor": [
            1,
            1,
            1
          ],
          "specularGlossinessTexture": {
            "index": 3,
            "texCoord": 0
          }
        }
      },
      "name": "material_4"
    },
    {
      "doubleSided": true,
      "emissiveFactor": [
        0,
        0,
        0
      ],
      "extensions": {
        "KHR_materials_pbrSpecularGlossiness": {
          "diffuseFactor": [
            1,
            1,
            1,
            1
          ],
          "glossinessFactor": 1,
          "specularFactor": [
            1,
            1,
            1
          ],
          "specularGlossinessTexture": {
            "index": 3,
            "texCoord": 0
          }
        }
      },
      "name": "material_5"
    }
  ],
  "meshes": [
    {
      "primitives": [
        {
          "attributes": {
            "COLOR_0": 2,
            "NORMAL": 1,
            "POSITION": 0,
            "TEXCOORD_0": 3,
            "TEXCOORD_1": 4,
            "TEXCOORD_2": 5
          },
          "indices": 6,
          "material": 0,
          "mode": 4
        }
      ]
    },
    {
      "primitives": [
        {
          "attributes": {
            "COLOR_0": 9,
            "NORMAL": 8,
            "POSITION": 7,
            "TEXCOORD_0": 10,
            "TEXCOORD_1": 11,
            "TEXCOORD_2": 12
          },
          "indices": 13,
          "material": 1,
          "mode": 4
        }
      ]
    },
    {
      "primitives": [
        {
          "attributes": {
            "COLOR_0": 16,
            "NORMAL": 15,
            "POSITION": 14,
            "TEXCOORD_0": 17,
            "TEXCOORD_1": 18,
            "TEXCOORD_2": 19
          },
          "indices": 20,
          "material": 2,
          "mode": 4
        }
      ]
    },
    {
      "primitives": [
        {
          "attributes": {
            "COLOR_0": 23,
            "NORMAL": 22,
            "POSITION": 21,
            "TEXCOORD_0": 24,
            "TEXCOORD_1": 25,
            "TEXCOORD_2": 26
          },
          "indices": 27,
          "material": 3,
          "mode": 4
        }
      ]
    },
    {
      "primitives": [
        {
          "attributes": {
            "COLOR_0": 30,
            "NORMAL": 29,
            "POSITION": 28,
            "TEXCOORD_0": 31,
            "TEXCOORD_1": 32,
            "TEXCOORD_2": 33
          },
          "indices": 34,
          "material": 4,
          "mode": 4
        }
      ]
    },
    {
      "primitives": [
        {
          "attributes": {
            "COLOR_0": 37,
            "NORMAL": 36,
            "POSITION": 35,
            "TEXCOORD_0": 38,
            "TEXCOORD_1": 39,
            "TEXCOORD_2": 40
          },
          "indices": 41,
          "material": 5,
          "mode": 4
        }
      ]
    }
  ],
  "nodes": [
    {
      "children": [
        1
      ],
      "name": "RootNode (gltf orientation matrix)",
      "rotation": [
        -0.70710678118654746,
        -0,
        -0,
        0.70710678118654757
      ]
    },
    {
      "children": [
        2
      ],
      "name": "RootNode (model correction matrix)"
    },
    {
      "children": [
        3
      ],
      "name": "root"
    },
    {
      "children": [
        4
      ],
      "matrix": [
        1,
        0,
        0,
        0,
        0,
        2.2204460492503131e-16,
        1,
        0,
        0,
        -1,
        2.2204460492503131e-16,
        0,
        0,
        0,
        0,
        1
      ],
      "name": "GLTF_SceneRootNode"
    },
    {
      "children": [
        5,
        7,
        9,
        11,
        13,
        15
      ],
      "name": "root_6"
    },
    {
      "children": [
        6
      ],
      "matrix": [
        0.0036590965464711189,
        0,
        0,
        0,
        0,
        0.00024509377544745803,
        0,
        0,
        0,
        0,
        0.0036471926141530275,
        0,
        -0.011855402961373329,
        0.016346283257007599,
        0.21245297789573669,
        1
      ],
      "name": "_0"
    },
    {
      "mesh": 0,
      "name": ""
    },
    {
      "children": [
        8
      ],
      "matrix": [
        0.0041805384680628777,
        0,
        0,
        0,
        0,
        9.3643147848084126e-10,
        0.0022218304220585046,
        0,
        0,
        -0.0041805384680625064,
        1.7619651705312378e-09,
        0,
        -0.0097197415307164192,
        0.014547860249876976,
        0.383501797914505,
        1
      ],
      "name": "_1"
    },
    {
      "mesh": 1,
      "name": ""
    },
    {
      "children": [
        10
      ],
      "matrix": [
        0.00069881387753412127,
        0,
        0,
        0,
        0,
        9.2913592139252713e-11,
        0.00022045205696483982,
        0,
        0,
        -0.0006988136447034156,
        2.9452792076090029e-10,
        0,
        -0.010031086392700672,
        0.014508654363453388,
        0.39886555075645447,
        1
      ],
      "name": "_2"
    },
    {
      "mesh": 2,
      "name": ""
    },
    {
      "children": [
        12
      ],
      "matrix": [
        0.0005312581779435277,
        0,
        0,
        0,
        0,
        5.2590963155420745e-11,
        0.00012478030112105247,
        0,
        0,
        -0.0005312580033204978,
        2.2390850020105353e-10,
        0,
        -0.010031086392700672,
        0.014508656226098537,
        0.41454425454139709,
        1
      ],
      "name": "_3"
    },
    {
      "mesh": 3,
      "name": ""
    },
    {
      "children": [
        14
      ],
      "matrix": [
        0.0020272047258913517,
        0,
        0,
        0,
        0,
        0.0020272047258913517,
        0,
        0,
        0,
        0,
        0.0020272047258913517,
        0,
        -0.011061572469770908,
        0.13458196818828583,
        0.21189147233963013,
        1
      ],
      "name": "_4"
    },
    {
      "mesh": 4,
      "name": ""
    },
    {
      "children": [
        16
      ],
      "matrix": [
        0.0020272047258913517,
        0,
        0,
        0,
        0,
        -0.0020272047258913517,
        0,
        0,
        0,
        0,
        -0.0020272047258913517,
        0,
        -0.010812451131641865,
        -0.097766533493995667,
        0.21167050302028656,
        1
      ],
      "name": "_5"
    },
    {
      "mesh": 5,
      "name": ""
    }
  ],
  "samplers": [
    {
      "magFilter": 9729,
      "minFilter": 9987,
      "wrapS": 10497,
      "wrapT": 10497
    }
  ],
  "scene": 0,
  "scenes": [
    {
      "name": "OSG_Scene",
      "nodes": [
        0
      ]
    }
  ],
  "textures": [
    {
      "sampler": 0,
      "source": 0
    },
    {
      "sampler": 0,
      "source": 1
    },
    {
      "sampler": 0,
      "source": 2
    },
    {
      "sampler": 0,
      "source": 3
    }
  ]
}

