{"accessors":[{"bufferView":0,"componentType":5125,"count":74496,"type":"SCALAR"},{"bufferView":1,"componentType":5126,"count":14772,"max":[0.66660219430923462,0.70904654264450073,0.67627167701721191],"min":[-0.61993211507797241,-0.6744503378868103,-0.67627167701721191],"type":"VEC3"},{"bufferView":2,"componentType":5126,"count":14772,"type":"VEC3"},{"bufferView":3,"componentType":5126,"count":14772,"type":"VEC2"},{"bufferView":4,"componentType":5125,"count":96,"type":"SCALAR"},{"bufferView":5,"componentType":5126,"count":25,"max":[1,0,0.56846767663955688],"min":[-1,-0.70904654264450073,-0.54908519983291626],"type":"VEC3"},{"bufferView":6,"componentType":5126,"count":25,"type":"VEC3"},{"bufferView":7,"componentType":5126,"count":25,"type":"VEC2"}],"asset":{"generator":"Substance Painter 2017.4.1","version":"2.0"},"bufferViews":[{"buffer":0,"byteLength":297984,"byteOffset":0,"target":34963},{"buffer":0,"byteLength":177264,"byteOffset":297984,"target":34962},{"buffer":0,"byteLength":177264,"byteOffset":475248,"target":34962},{"buffer":0,"byteLength":118176,"byteOffset":652512,"target":34962},{"buffer":0,"byteLength":384,"byteOffset":770688,"target":34963},{"buffer":0,"byteLength":300,"byteOffset":771072,"target":34962},{"buffer":0,"byteLength":300,"byteOffset":771372,"target":34962},{"buffer":0,"byteLength":200,"byteOffset":771672,"target":34962}],"buffers":[{"byteLength":771872,"uri":"Untitled.bin"}],"images":[{"uri":"01 - Default_baseColor.png"}],"materials":[{"alphaMode":"OPAQUE","name":"01 - Default","pbrMetallicRoughness":{"baseColorTexture":{"index":0}}}],"meshes":[{"name":"Helix001","primitives":[{"attributes":{"NORMAL":2,"POSITION":1,"TEXCOORD_0":3},"indices":0,"material":0,"mode":4}]},{"name":"Plane001","primitives":[{"attributes":{"NORMAL":6,"POSITION":5,"TEXCOORD_0":7},"indices":4,"material":0,"mode":4}]}],"nodes":[{"children":[1,3],"name":"root","scale":[82.378311157226563,82.378311157226563,82.378311157226563],"translation":[-3.6693496704101563,58.061416625976563,-4.0992279052734375]},{"children":[2],"name":"Helix001"},{"mesh":0,"name":"Helix001"},{"children":[4],"name":"Plane001"},{"mesh":1,"name":"Plane001"}],"samplers":[{"magFilter":9729,"minFilter":9985,"wrapS":10497,"wrapT":10497}],"scene":0,"scenes":[{"name":"Scene","nodes":[0]}],"textures":[{"sampler":0,"source":0}]}
